<mxfile host="app.diagrams.net" modified="2024-04-14T09:21:26.799Z" agent="Mozilla/5.0 (Macintosh; Intel Mac OS X 10_15_7) AppleWebKit/537.36 (KHTML, like Gecko) Chrome/123.0.0.0 Safari/537.36" etag="mJpr1LqJoKSoTm-9TgXN" version="24.2.5" type="github">
  <diagram id="C5RBs43oDa-KdzZeNtuy" name="Page-1">
    <mxGraphModel dx="1026" dy="685" grid="1" gridSize="10" guides="1" tooltips="1" connect="1" arrows="1" fold="1" page="1" pageScale="1" pageWidth="827" pageHeight="1169" math="0" shadow="0">
      <root>
        <mxCell id="WIyWlLk6GJQsqaUBKTNV-0" />
        <mxCell id="WIyWlLk6GJQsqaUBKTNV-1" parent="WIyWlLk6GJQsqaUBKTNV-0" />
        <mxCell id="crdxs7tZvkczeM8abQw9-2" value="" style="edgeStyle=orthogonalEdgeStyle;rounded=0;orthogonalLoop=1;jettySize=auto;html=1;" edge="1" parent="WIyWlLk6GJQsqaUBKTNV-1" source="crdxs7tZvkczeM8abQw9-0" target="crdxs7tZvkczeM8abQw9-1">
          <mxGeometry relative="1" as="geometry" />
        </mxCell>
        <mxCell id="crdxs7tZvkczeM8abQw9-0" value="测试程序开始" style="rounded=0;whiteSpace=wrap;html=1;" vertex="1" parent="WIyWlLk6GJQsqaUBKTNV-1">
          <mxGeometry x="270" y="180" width="120" height="60" as="geometry" />
        </mxCell>
        <mxCell id="crdxs7tZvkczeM8abQw9-4" value="" style="edgeStyle=orthogonalEdgeStyle;rounded=0;orthogonalLoop=1;jettySize=auto;html=1;" edge="1" parent="WIyWlLk6GJQsqaUBKTNV-1" source="crdxs7tZvkczeM8abQw9-1" target="crdxs7tZvkczeM8abQw9-3">
          <mxGeometry relative="1" as="geometry" />
        </mxCell>
        <mxCell id="crdxs7tZvkczeM8abQw9-1" value="定义所需变量" style="whiteSpace=wrap;html=1;rounded=0;" vertex="1" parent="WIyWlLk6GJQsqaUBKTNV-1">
          <mxGeometry x="270" y="280" width="120" height="60" as="geometry" />
        </mxCell>
        <mxCell id="crdxs7tZvkczeM8abQw9-6" value="" style="edgeStyle=orthogonalEdgeStyle;rounded=0;orthogonalLoop=1;jettySize=auto;html=1;" edge="1" parent="WIyWlLk6GJQsqaUBKTNV-1" source="crdxs7tZvkczeM8abQw9-3" target="crdxs7tZvkczeM8abQw9-5">
          <mxGeometry relative="1" as="geometry" />
        </mxCell>
        <mxCell id="crdxs7tZvkczeM8abQw9-3" value="打开虚拟文件" style="whiteSpace=wrap;html=1;rounded=0;" vertex="1" parent="WIyWlLk6GJQsqaUBKTNV-1">
          <mxGeometry x="270" y="380" width="120" height="60" as="geometry" />
        </mxCell>
        <mxCell id="crdxs7tZvkczeM8abQw9-8" value="" style="edgeStyle=orthogonalEdgeStyle;rounded=0;orthogonalLoop=1;jettySize=auto;html=1;" edge="1" parent="WIyWlLk6GJQsqaUBKTNV-1" source="crdxs7tZvkczeM8abQw9-5" target="crdxs7tZvkczeM8abQw9-7">
          <mxGeometry relative="1" as="geometry" />
        </mxCell>
        <mxCell id="crdxs7tZvkczeM8abQw9-10" value="是" style="edgeLabel;html=1;align=center;verticalAlign=middle;resizable=0;points=[];" vertex="1" connectable="0" parent="crdxs7tZvkczeM8abQw9-8">
          <mxGeometry y="1" relative="1" as="geometry">
            <mxPoint as="offset" />
          </mxGeometry>
        </mxCell>
        <mxCell id="crdxs7tZvkczeM8abQw9-12" value="" style="edgeStyle=orthogonalEdgeStyle;rounded=0;orthogonalLoop=1;jettySize=auto;html=1;" edge="1" parent="WIyWlLk6GJQsqaUBKTNV-1" source="crdxs7tZvkczeM8abQw9-5" target="crdxs7tZvkczeM8abQw9-11">
          <mxGeometry relative="1" as="geometry" />
        </mxCell>
        <mxCell id="crdxs7tZvkczeM8abQw9-13" value="否" style="edgeLabel;html=1;align=center;verticalAlign=middle;resizable=0;points=[];" vertex="1" connectable="0" parent="crdxs7tZvkczeM8abQw9-12">
          <mxGeometry x="-0.2" relative="1" as="geometry">
            <mxPoint as="offset" />
          </mxGeometry>
        </mxCell>
        <mxCell id="crdxs7tZvkczeM8abQw9-5" value="打开文件是否成功" style="rhombus;whiteSpace=wrap;html=1;rounded=0;" vertex="1" parent="WIyWlLk6GJQsqaUBKTNV-1">
          <mxGeometry x="265" y="480" width="130" height="80" as="geometry" />
        </mxCell>
        <mxCell id="crdxs7tZvkczeM8abQw9-18" value="" style="edgeStyle=orthogonalEdgeStyle;rounded=0;orthogonalLoop=1;jettySize=auto;html=1;" edge="1" parent="WIyWlLk6GJQsqaUBKTNV-1" source="crdxs7tZvkczeM8abQw9-7" target="crdxs7tZvkczeM8abQw9-17">
          <mxGeometry relative="1" as="geometry" />
        </mxCell>
        <mxCell id="crdxs7tZvkczeM8abQw9-7" value="读取文件中的时间信息，并输出" style="whiteSpace=wrap;html=1;rounded=0;" vertex="1" parent="WIyWlLk6GJQsqaUBKTNV-1">
          <mxGeometry x="460" y="490" width="120" height="60" as="geometry" />
        </mxCell>
        <mxCell id="crdxs7tZvkczeM8abQw9-16" value="" style="edgeStyle=orthogonalEdgeStyle;rounded=0;orthogonalLoop=1;jettySize=auto;html=1;entryX=0;entryY=0.5;entryDx=0;entryDy=0;" edge="1" parent="WIyWlLk6GJQsqaUBKTNV-1" source="crdxs7tZvkczeM8abQw9-11" target="crdxs7tZvkczeM8abQw9-15">
          <mxGeometry relative="1" as="geometry">
            <Array as="points">
              <mxPoint x="140" y="760" />
            </Array>
          </mxGeometry>
        </mxCell>
        <mxCell id="crdxs7tZvkczeM8abQw9-11" value="输出提示信息" style="whiteSpace=wrap;html=1;rounded=0;" vertex="1" parent="WIyWlLk6GJQsqaUBKTNV-1">
          <mxGeometry x="80" y="490" width="120" height="60" as="geometry" />
        </mxCell>
        <mxCell id="crdxs7tZvkczeM8abQw9-15" value="退出" style="whiteSpace=wrap;html=1;rounded=0;" vertex="1" parent="WIyWlLk6GJQsqaUBKTNV-1">
          <mxGeometry x="275" y="730" width="120" height="60" as="geometry" />
        </mxCell>
        <mxCell id="crdxs7tZvkczeM8abQw9-21" style="edgeStyle=orthogonalEdgeStyle;rounded=0;orthogonalLoop=1;jettySize=auto;html=1;entryX=1;entryY=0.5;entryDx=0;entryDy=0;exitX=0.5;exitY=1;exitDx=0;exitDy=0;" edge="1" parent="WIyWlLk6GJQsqaUBKTNV-1" source="crdxs7tZvkczeM8abQw9-17" target="crdxs7tZvkczeM8abQw9-15">
          <mxGeometry relative="1" as="geometry" />
        </mxCell>
        <mxCell id="crdxs7tZvkczeM8abQw9-17" value="输出当前系统时间信息" style="whiteSpace=wrap;html=1;rounded=0;" vertex="1" parent="WIyWlLk6GJQsqaUBKTNV-1">
          <mxGeometry x="460" y="630" width="120" height="60" as="geometry" />
        </mxCell>
      </root>
    </mxGraphModel>
  </diagram>
</mxfile>
